# xmcd
#
# Track frame offsets:
#	150
#	19360
#	40677
#	58694
#	87284
#	109640
#	133852
#	156023
#	181738
#	200236
#	224064
#	248548
#	269593
#	293220
#	312352
#
# Disc length: 4396 seconds
#
# Revision: 0
# Processed by: cddbd v1.4PL0 Copyright (c) Steve Scherf et al.
# Submitted via: audiograbber 1.82.01
#
DISCID=e1112a0f
DTITLE=Various Artist - Kontor - Sunset Chill Vol. 3  [CD 2)
DYEAR=2002
DGENRE=Ambient
TTITLE0=Rank 1 - T.T.C.
TTITLE1=Coco and Stonebridge - It was perfectly Chilled
TTITLE2=ATB - Get High
TTITLE3=Aaron Bingle and Venom Space  - Inner Oceanscene
TTITLE4=Shakedown - At Night (Aferlife Remix)
TTITLE5=Kluster  - I feel Love (Tim "Love" Lee`s fully beardeo Mix)
TTITLE6=Aferlife  - Show you something
TTITLE7=Stamp - Mistakes (Half Tempo Mix)
TTITLE8=Floris feat. Rose  - Nothing to it
TTITLE9=Sebastian Ingrosso and Luciano Ingrosso - Moonflower
TTITLE10=C.R.Project  - Smile
TTITLE11=Low Res  - Another Try
TTITLE12=Jurr - Mr. Suitcase
TTITLE13=The Floaters - Float on
TTITLE14=Mr. Fingers  - Can you feel it (Original 12" Mix)
EXTD=
EXTT0=
EXTT1=
EXTT2=
EXTT3=
EXTT4=
EXTT5=
EXTT6=
EXTT7=
EXTT8=
EXTT9=
EXTT10=
EXTT11=
EXTT12=
EXTT13=
EXTT14=
PLAYORDER=
